# xmcd CD database file
#
# Track frame offsets:
#	150
#	19290
#	38087
#	59595
#	77940
#	95882
#	118585
#	137050
#	153295
#	177577
#	198700
#	221345
#	239762
#	260007
#	277525
#	295162
#	312887
#
# Disc length: 4410 seconds
#
# Revision: 7
# Processed by: cddbd v1.4PL0 Copyright (c) Steve Scherf et al.
# Submitted via: CDex 1.50beta10
#
DISCID=03113811
DTITLE=Basia - Clear Horizon (The Best of Basia)
DYEAR=1997
DGENRE=Jazz
TTITLE0=Clear Horizon
TTITLE1=Cruising For Bruising
TTITLE2=Drunk On Love
TTITLE3=Time and Tide
TTITLE4=Waters of March
TTITLE5=Third Time Lucky
TTITLE6=Promises
TTITLE7=Baby You're Mine
TTITLE8=Yearning
TTITLE9=Astrud
TTITLE10=An Olive Tree
TTITLE11=Go For You
TTITLE12=New Day For You
TTITLE13=Perfect Mother
TTITLE14=From Now On (Live)
TTITLE15=Half a Minute (Live)
TTITLE16=Angels Blush
EXTD=LABEL =Sony Music Entertainment\nID =CCBK69727\nUPC =77749-532895602\nCOPYRIGHT =1997 YEAR: 1997
EXTT0=
EXTT1=
EXTT2=
EXTT3=
EXTT4=
EXTT5=
EXTT6=
EXTT7=
EXTT8=
EXTT9=
EXTT10=
EXTT11=
EXTT12=
EXTT13=
EXTT14=
EXTT15=
EXTT16=
PLAYORDER=
